<?xml version="1.0" encoding="UTF-8" standalone="no"?>
<!-- Source: https://commons.wikimedia.org/wiki/File:Dai-ichi_Life_logo.svg -->
<!-- License/usage note: Public domain textlogo on Wikimedia Commons; trademark restrictions may apply. -->
<!-- Created with Inkscape (http://www.inkscape.org/) -->

<svg
   xmlns:dc="http://purl.org/dc/elements/1.1/"
   xmlns:cc="http://creativecommons.org/ns#"
   xmlns:rdf="http://www.w3.org/1999/02/22-rdf-syntax-ns#"
   xmlns:svg="http://www.w3.org/2000/svg"
   xmlns="http://www.w3.org/2000/svg"
   xmlns:sodipodi="http://sodipodi.sourceforge.net/DTD/sodipodi-0.dtd"
   xmlns:inkscape="http://www.inkscape.org/namespaces/inkscape"
   width="141.15366"
   height="42.672691"
   viewBox="0 0 37.346904 11.290483"
   version="1.1"
   id="svg74554"
   inkscape:version="0.92.0 r15299"
   sodipodi:docname="dai ichi life.svg">
  <defs
     id="defs74548">
    <clipPath
       id="clipPath73231"
       clipPathUnits="userSpaceOnUse">
      <path
         inkscape:connector-curvature="0"
         id="path73229"
         d="M 0,0 H 595.276 V 841.89 H 0 Z" />
    </clipPath>
  </defs>
  <sodipodi:namedview
     id="base"
     pagecolor="#ffffff"
     bordercolor="#666666"
     borderopacity="1.0"
     inkscape:pageopacity="0.0"
     inkscape:pageshadow="2"
     inkscape:zoom="5.7222912"
     inkscape:cx="70.076825"
     inkscape:cy="20.836346"
     inkscape:document-units="mm"
     inkscape:current-layer="layer1"
     showgrid="false"
     fit-margin-top="0"
     fit-margin-left="0"
     fit-margin-right="0"
     fit-margin-bottom="0"
     units="px"
     inkscape:window-width="1280"
     inkscape:window-height="744"
     inkscape:window-x="-4"
     inkscape:window-y="-4"
     inkscape:window-maximized="1" />
  <metadata
     id="metadata74551">
    <rdf:RDF>
      <cc:Work
         rdf:about="">
        <dc:format>image/svg+xml</dc:format>
        <dc:type
           rdf:resource="http://purl.org/dc/dcmitype/StillImage" />
        <dc:title></dc:title>
      </cc:Work>
    </rdf:RDF>
  </metadata>
  <g
     inkscape:label="Layer 1"
     inkscape:groupmode="layer"
     id="layer1"
     transform="translate(-109.21475,-193.70463)">
    <g
       id="g74644"
       transform="translate(0.13229241,-0.13228783)">
      <path
         d="m 143.27376,195.52998 c 10e-4,-0.0303 -0.23001,-0.0579 -0.28116,-0.0681 l -0.0117,-0.005 c -0.54221,-0.20744 -15.2273,-1.48767 -15.2273,-1.48767 0,0 -14.67908,1.28023 -15.222,1.48767 l -0.0152,0.005 c -0.0508,0.0102 -0.28293,0.0377 -0.28152,0.0681 -1.73919,0.47202 -3.02013,2.06304 -3.02013,3.95217 0,1.89054 1.28094,3.48227 3.02013,3.95852 -0.001,0.0307 0.23072,0.0564 0.28152,0.0663 l 0.0152,0.004 c 0.54292,0.21026 15.222,1.48414 15.222,1.48414 0,0 14.68509,-1.27388 15.2273,-1.48414 l 0.0117,-0.004 c 0.0511,-0.01 0.28257,-0.0356 0.28116,-0.0663 1.74096,-0.47625 3.02331,-2.06798 3.02331,-3.95852 0,-1.88913 -1.28235,-3.48015 -3.02331,-3.95217"
         style="fill:#c7000b;fill-opacity:1;fill-rule:nonzero;stroke:none;stroke-width:0.35277778"
         id="path73235"
         inkscape:connector-curvature="0" />
      <path
         d="m 114.03039,198.04489 h -1.53106 l -0.003,2.93511 h 1.46967 c 0,0 1.6757,-0.002 1.6757,-1.49825 0,0 0,-1.43686 -1.61149,-1.43686 m 0.83926,1.45662 c 0,0.98319 -1.08515,0.99236 -1.08515,0.99236 h -0.59125 v -1.98331 h 0.63465 c 1.08796,0 1.04175,0.99095 1.04175,0.99095"
         style="fill:#ffffff;fill-opacity:1;fill-rule:nonzero;stroke:none;stroke-width:0.35277778"
         id="path73239"
         inkscape:connector-curvature="0" />
      <path
         d="m 118.51282,200.9801 h 0.74789 l -0.80257,-2.46027 c -0.16193,-0.47555 -0.68509,-0.47555 -0.68509,-0.47555 0,0 -0.21696,-0.0282 -0.41664,0 0,0 -0.52105,0 -0.68297,0.47555 l -0.80398,2.46027 h 0.73977 l 0.25047,-0.80081 h 1.40476 z m -1.50671,-1.26894 0.31609,-1.00612 c 0.0459,-0.14746 0.18838,-0.1778 0.24482,-0.18451 0.054,0.007 0.19579,0.037 0.24095,0.18451 l 0.31256,1.00612 z"
         style="fill:#ffffff;fill-opacity:1;fill-rule:nonzero;stroke:none;stroke-width:0.35277778"
         id="path73243"
         inkscape:connector-curvature="0" />
      <path
         inkscape:connector-curvature="0"
         id="path73245"
         style="fill:#ffffff;fill-opacity:1;fill-rule:nonzero;stroke:none;stroke-width:0.35277778"
         d="m 121.07765,199.12891 h 1.5046 v 0.46779 h -1.5046 z" />
      <path
         inkscape:connector-curvature="0"
         id="path73247"
         style="fill:#ffffff;fill-opacity:1;fill-rule:nonzero;stroke:none;stroke-width:0.35277778"
         d="m 119.81683,198.03248 h 0.71331 v 2.94746 h -0.71331 z" />
      <path
         inkscape:connector-curvature="0"
         id="path73249"
         style="fill:#ffffff;fill-opacity:1;fill-rule:nonzero;stroke:none;stroke-width:0.35277778"
         d="m 123.15587,198.03248 h 0.71261 v 2.94746 h -0.71261 z" />
      <path
         inkscape:connector-curvature="0"
         id="path73251"
         style="fill:#ffffff;fill-opacity:1;fill-rule:nonzero;stroke:none;stroke-width:0.35277778"
         d="m 130.89898,198.03248 h 0.71297 v 2.94746 h -0.71297 z" />
      <path
         inkscape:connector-curvature="0"
         id="path73253"
         style="fill:#ffffff;fill-opacity:1;fill-rule:nonzero;stroke:none;stroke-width:0.35277778"
         d="m 136.1836,198.04483 h 0.71261 v 2.93546 h -0.71261 z" />
      <path
         d="m 129.62979,198.03283 v 1.09573 h -1.37336 v -1.09573 h -0.71367 v 2.94711 h 0.71367 v -1.38254 h 1.37336 v 1.38254 h 0.71296 v -2.94711 z"
         style="fill:#ffffff;fill-opacity:1;fill-rule:nonzero;stroke:none;stroke-width:0.35277778"
         id="path73257"
         inkscape:connector-curvature="0" />
      <path
         d="m 135.70558,200.47783 h -1.43051 c 0,0 -0.38383,0 -0.39688,-0.39335 v -2.03976 h -0.71296 v 2.0059 c 0,0.92745 0.84208,0.92745 0.84208,0.92745 h 1.69827 z"
         style="fill:#ffffff;fill-opacity:1;fill-rule:nonzero;stroke:none;stroke-width:0.35277778"
         id="path73269"
         inkscape:connector-curvature="0" />
      <path
         d="m 138.59946,198.53134 h 1.43192 v -0.49883 h -1.69862 c 0,0 -0.84349,0 -0.84349,0.92887 v 2.01647 h 0.7112 v -1.17228 h 1.73284 v -0.46884 h -1.73284 v -0.41134 c 0.0152,-0.39405 0.39899,-0.39405 0.39899,-0.39405"
         style="fill:#ffffff;fill-opacity:1;fill-rule:nonzero;stroke:none;stroke-width:0.35277778"
         id="path73273"
         inkscape:connector-curvature="0" />
      <path
         d="m 141.5774,200.47783 c 0,0 -0.381,0 -0.39758,-0.39335 v -0.381 h 1.71556 v -0.4699 h -1.71556 v -0.30762 c 0.0166,-0.39476 0.39758,-0.38276 0.39758,-0.38276 h 1.43263 v -0.49848 h -1.69933 c 0,0 -0.84314,-0.012 -0.84314,0.91652 v 1.08938 c 0,0.92745 0.84314,0.92745 0.84314,0.92745 h 1.70392 l -0.0123,-0.50024 z"
         style="fill:#ffffff;fill-opacity:1;fill-rule:nonzero;stroke:none;stroke-width:0.35277778"
         id="path73277"
         inkscape:connector-curvature="0" />
      <path
         d="m 127.04115,198.04077 h -1.02517 c -0.91299,0 -1.651,0.65934 -1.651,1.47038 0,0.81139 0.73801,1.46896 1.651,1.46896 h 1.03081 v -0.49565 h -0.93239 c -0.4953,0 -0.96802,-0.43603 -0.96802,-0.97331 0,-0.53834 0.47272,-0.97367 0.96802,-0.97367 h 0.92675 z"
         style="fill:#ffffff;fill-opacity:1;fill-rule:nonzero;stroke:none;stroke-width:0.35277778"
         id="path73281"
         inkscape:connector-curvature="0" />
    </g>
  </g>
</svg>
