<?xml version="1.0" encoding="UTF-8" standalone="no"?>
<!-- Source: https://commons.wikimedia.org/wiki/File:MS%26AD_Insurance_Group_logo.svg -->
<!-- License/usage note: Public domain textlogo on Wikimedia Commons; trademark restrictions may apply. -->
<!-- Created with Inkscape (http://www.inkscape.org/) -->

<svg
   xmlns:dc="http://purl.org/dc/elements/1.1/"
   xmlns:cc="http://creativecommons.org/ns#"
   xmlns:rdf="http://www.w3.org/1999/02/22-rdf-syntax-ns#"
   xmlns:svg="http://www.w3.org/2000/svg"
   xmlns="http://www.w3.org/2000/svg"
   xmlns:sodipodi="http://sodipodi.sourceforge.net/DTD/sodipodi-0.dtd"
   xmlns:inkscape="http://www.inkscape.org/namespaces/inkscape"
   width="145.58801"
   height="68.65876"
   viewBox="0 0 38.52016 18.165964"
   version="1.1"
   id="svg69567"
   inkscape:version="0.92.0 r15299"
   sodipodi:docname="ms and ad.svg">
  <defs
     id="defs69561">
    <clipPath
       id="clipPath68881"
       clipPathUnits="userSpaceOnUse">
      <path
         inkscape:connector-curvature="0"
         id="path68879"
         d="M 73.939,243.296 H 184.14 v 66.983 H 73.939 Z" />
    </clipPath>
    <clipPath
       id="clipPath68867"
       clipPathUnits="userSpaceOnUse">
      <path
         inkscape:connector-curvature="0"
         id="path68865"
         d="M 73.939,243.296 H 184.14 v 66.983 H 73.939 Z" />
    </clipPath>
  </defs>
  <sodipodi:namedview
     id="base"
     pagecolor="#ffffff"
     bordercolor="#666666"
     borderopacity="1.0"
     inkscape:pageopacity="0.0"
     inkscape:pageshadow="2"
     inkscape:zoom="5.5467945"
     inkscape:cx="72.294008"
     inkscape:cy="33.829437"
     inkscape:document-units="mm"
     inkscape:current-layer="layer1"
     showgrid="false"
     fit-margin-top="0"
     fit-margin-left="0"
     fit-margin-right="0"
     fit-margin-bottom="0"
     units="px"
     inkscape:window-width="1280"
     inkscape:window-height="744"
     inkscape:window-x="-4"
     inkscape:window-y="-4"
     inkscape:window-maximized="1" />
  <metadata
     id="metadata69564">
    <rdf:RDF>
      <cc:Work
         rdf:about="">
        <dc:format>image/svg+xml</dc:format>
        <dc:type
           rdf:resource="http://purl.org/dc/dcmitype/StillImage" />
        <dc:title></dc:title>
      </cc:Work>
    </rdf:RDF>
  </metadata>
  <g
     inkscape:label="Layer 1"
     inkscape:groupmode="layer"
     id="layer1"
     transform="translate(-72.342451,-201.60617)">
    <g
       id="g69622"
       transform="translate(0.13229135,-0.13228816)">
      <path
         d="m 93.485482,217.24692 v 1.03646 h 0.842433 v 0.19791 h -0.842433 v 1.03575 h 1.114778 v 0.20003 h -1.355725 v -2.67053 h 1.355725 v 0.20038 z m -16.9926,-0.20038 h -0.240594 v 2.67053 h 0.240594 z m 0.973667,2.67053 v -2.36467 l 0.0071,-0.008 1.107016,2.37278 h 0.358775 v -2.67053 h -0.235303 v 2.33751 l -0.0074,0.006 -1.10243,-2.34386 h -0.369006 v 2.67053 z m 11.293475,0 v -2.36467 l 0.0067,-0.008 1.108075,2.37278 h 0.364066 v -2.67053 h -0.2413 v 2.33751 l -0.0071,0.006 -1.102784,-2.34386 h -0.362655 v 2.67053 z m -7.669742,-1.99355 c 0,-0.38558 -0.120297,-0.72884 -0.679802,-0.72884 -0.444148,0 -0.740481,0.19297 -0.735895,0.65405 0.0025,0.26706 0.02505,0.42651 0.551392,0.74331 0.391936,0.23706 0.631119,0.34149 0.631119,0.70449 0,0.30516 -0.148872,0.47273 -0.464608,0.47273 -0.485422,0 -0.509058,-0.3048 -0.509058,-0.60255 h -0.248003 c -0.02293,0.5207 0.214489,0.80328 0.745066,0.80328 0.470253,0 0.717198,-0.2346 0.717198,-0.70979 0,-0.52 -0.33902,-0.59055 -0.672395,-0.82444 -0.307269,-0.21978 -0.510822,-0.23037 -0.510822,-0.62865 0,-0.31151 0.18415,-0.4117 0.478014,-0.4117 0.366183,0 0.446617,0.19685 0.453672,0.52811 z m 20.211698,-0.72884 c 0.81456,0 0.82162,0.6657 0.82162,1.38783 0,0.72355 -0.007,1.38959 -0.82162,1.38959 -0.8121,0 -0.82021,-0.66604 -0.82021,-1.38959 0,-0.72213 0.008,-1.38783 0.82021,-1.38783 m 0,2.5774 c 0.57397,0 0.58067,-0.4766 0.58067,-1.18957 0,-0.71085 -0.007,-1.1871 -0.58067,-1.1871 -0.57185,0 -0.57891,0.47625 -0.57891,1.1871 0,0.71297 0.007,1.18957 0.57891,1.18957 m -4.029781,-0.0797 c -0.127353,0.0497 -0.30092,0.0797 -0.508353,0.0797 -0.581378,0 -0.57397,-0.51435 -0.57397,-1.18957 0,-0.67345 -0.0074,-1.1871 0.57397,-1.1871 0.381,0 0.535869,0.18204 0.535869,0.53517 h 0.240595 c 0.01094,-0.51717 -0.256117,-0.7359 -0.776464,-0.7359 -0.879828,0 -0.81527,0.86995 -0.81527,1.38783 0,0.51929 -0.06456,1.38959 0.81527,1.38959 0.256822,0 0.508353,-0.0374 0.748947,-0.11183 v -1.33738 h -0.790222 v 0.20038 h 0.549628 z m -14.084653,-2.44581 v 1.33597 h 3.53e-4 c -3.53e-4,0.71297 -0.0074,1.18957 -0.574322,1.18957 -0.572559,0 -0.579967,-0.4766 -0.579967,-1.18957 v -1.33597 h -0.240947 v 1.33597 h -3.53e-4 c 0,0.72355 0.0071,1.38959 0.821267,1.38959 0.807508,0 0.814211,-0.66604 0.814211,-1.38959 v -1.33597 z m 21.039664,0 v 1.33597 h 7.1e-4 c 0,0.71297 -0.007,1.18957 -0.57926,1.18957 -0.57256,0 -0.57962,-0.4766 -0.57962,-1.18957 v -1.33597 h -0.2413 v 1.33597 c 0,0.72355 0.007,1.38959 0.82092,1.38959 0.80751,0 0.81491,-0.66604 0.81491,-1.38959 v -1.33597 z m 2.52413,0.83362 c 0,0.14499 -0.0363,0.37288 -0.23883,0.5916 -0.19544,0.21732 -0.42757,0.24272 -0.67981,0.24272 h -0.41874 v 1.00541 h -0.2413 v -2.67229 h 0.66004 c 0.25224,0 0.48437,0.024 0.67981,0.2413 0.20249,0.21943 0.23883,0.44697 0.23883,0.59126 m -0.2413,0 c 0,-0.13723 -0.0378,-0.3048 -0.16828,-0.4572 -0.10901,-0.12418 -0.23213,-0.17957 -0.50906,-0.17957 h -0.41874 v 1.27424 h 0.41874 c 0.27693,0 0.40005,-0.055 0.50906,-0.18239 0.13053,-0.14923 0.16828,-0.31644 0.16828,-0.45508 m -20.727813,1.83797 H 85.52611 l -0.366889,-1.01882 c -0.03387,-0.10019 -0.09631,-0.16722 -0.278694,-0.17357 -0.04621,0 -0.493889,0.001 -0.493889,0.001 v 1.19274 h -0.241653 v -2.67335 h 0.702381 c 0.531636,0 0.862188,0.28222 0.862188,0.74013 0,0.31397 -0.155222,0.54398 -0.424744,0.65899 0.04339,0.048 0.07867,0.10477 0.102306,0.17568 z m -0.934861,-1.39277 c 0.229658,0 0.621241,-0.085 0.621241,-0.53869 0,-0.45297 -0.391583,-0.53763 -0.621241,-0.53763 h -0.460728 v 1.07632 z m 15.048794,1.39277 h -0.255764 l -0.366184,-1.01882 c -0.03457,-0.10019 -0.09666,-0.16722 -0.2794,-0.17357 -0.04621,0 -0.497416,0.001 -0.497416,0.001 v 1.19274 h -0.237067 v -2.67335 h 0.701322 c 0.532342,0 0.862895,0.28222 0.862895,0.74013 0,0.31397 -0.155928,0.54398 -0.425097,0.65899 0.0441,0.048 0.07902,0.10477 0.103011,0.17568 z m -0.934509,-1.39277 c 0.229659,0 0.6223,-0.085 0.6223,-0.53869 0,-0.45297 -0.392641,-0.53763 -0.6223,-0.53763 h -0.464255 v 1.07632 z m -6.674202,0.7105 c -0.04762,0.33267 -0.182034,0.53622 -0.553861,0.53622 -0.571853,0 -0.578909,-0.4766 -0.578909,-1.18957 0,-0.71085 0.0071,-1.1871 0.578909,-1.1871 0.370769,0 0.504825,0.19862 0.553861,0.53305 h 0.236714 c -0.05644,-0.42333 -0.236009,-0.73378 -0.790575,-0.73378 -0.8128,0 -0.820561,0.6657 -0.820561,1.38783 0,0.72355 0.0078,1.38959 0.820561,1.38959 0.555977,0 0.735541,-0.31185 0.792338,-0.73624 z m -5.03167,-1.98932 0.728839,2.67053 H 87.73591 l -0.19685,-0.71826 h -0.904875 l -0.195439,0.71826 h -0.249414 l 0.723547,-2.67053 z m 0.228953,1.75084 -0.400755,-1.46579 -0.396875,1.46579 z"
         style="fill:#00655a;fill-opacity:1;fill-rule:nonzero;stroke:none;stroke-width:0.35277778"
         id="path68871"
         inkscape:connector-curvature="0" />
      <path
         inkscape:connector-curvature="0"
         id="path68873"
         style="fill:#00655a;fill-opacity:1;fill-rule:nonzero;stroke:none;stroke-width:0.35277778"
         d="M 72.342451,214.67588 H 110.59803 V 201.87075 H 72.342451 Z" />
      <path
         d="m 79.294855,210.07918 h -0.01905 l -1.742722,-4.78861 h -2.107847 v 0.019 c 0.521052,0.20215 0.827616,0.61137 0.827616,1.28764 v 4.66373 h 0.609247 v -5.22605 h 0.01976 l 1.900061,5.22605 h 0.697442 l 1.879247,-5.28038 h 0.01799 v 5.28038 h 1.154641 v -5.97042 h -1.532819 z m 5.810955,-3.6262 c 0,-0.60149 0.531637,-0.83891 1.008945,-0.85055 0.684036,-0.0159 1.391708,0.27481 1.851378,0.51717 v -0.72425 c -0.208845,-0.0452 -0.970492,-0.23354 -1.723673,-0.23354 -1.345494,0 -2.1844,0.55951 -2.218619,1.5487 -0.06773,2.0006 3.200753,1.86795 3.200753,3.20886 0,0.64629 -0.475545,1.00471 -1.229431,1.00471 -0.68968,0 -1.393119,-0.31185 -1.882422,-0.64523 v 0.81315 c 0.208844,0.10901 0.964494,0.2981 1.724731,0.2981 1.357841,0 2.501194,-0.43533 2.475088,-1.76847 -0.03739,-1.93252 -3.20675,-1.7907 -3.20675,-3.16865 m 8.87342,3.43852 c 0.127705,-0.26987 0.376061,-0.76764 0.641702,-1.46685 h -0.617713 c 0,0 -0.227542,0.55281 -0.4445,1.04458 -0.556331,-0.56621 -1.086203,-1.11478 -1.45662,-1.50248 0.586317,-0.34255 1.470025,-0.72849 1.470025,-1.61502 0,-0.54857 -0.485775,-1.18498 -1.561747,-1.15782 -0.807861,0.0233 -1.380067,0.58632 -1.423106,1.24425 -0.03563,0.52352 0.213078,0.87489 0.519995,1.19521 0.05503,0.0586 0.154869,0.16016 0.281164,0.29245 -0.893586,0.514 -1.42487,1.10879 -1.448859,1.85879 -0.03034,0.88441 0.681567,1.6129 1.910645,1.6129 0.83185,0 1.455914,-0.37888 1.881011,-1.03858 0.500239,0.51823 0.867128,0.90276 0.867128,0.90276 h 0.758472 c -0.376061,-0.36265 -0.868539,-0.85549 -1.377597,-1.37019 m -2.856442,-3.48544 c 0.02187,-0.47978 0.365478,-0.85372 0.929922,-0.85972 0.542572,-0.007 0.962378,0.3436 0.962378,0.85972 0,0.61383 -0.438503,0.90664 -1.177219,1.28305 -0.04057,-0.043 -0.0762,-0.0829 -0.106892,-0.11606 -0.401108,-0.4318 -0.629356,-0.70485 -0.608189,-1.16699 m 2.172053,3.63114 c -0.324203,0.61948 -0.639234,1.004 -1.401939,1.004 -0.857956,0 -1.400881,-0.55774 -1.369131,-1.34196 0.02787,-0.71579 0.602192,-1.14194 1.150409,-1.47567 0.459669,0.47519 1.09608,1.14229 1.663347,1.7272 -0.01446,0.0314 -0.02963,0.061 -0.04269,0.0864 m 11.167893,-4.74451 v 0 h -2.56152 v 0.018 c 0.51576,0.2025 0.82126,0.61207 0.82126,1.28835 v 4.66372 h 1.74026 c 1.87042,0 3.24626,-0.4766 3.24626,-2.98521 0,-2.51177 -1.38183,-2.98485 -3.24626,-2.98485 m 0.0981,5.51356 h -0.79375 v -5.06165 h 0.79375 c 1.5688,0 2.0066,0.94862 2.0066,2.53294 0,1.58257 -0.4378,2.52871 -2.0066,2.52871 m -7.283455,-5.51356 v 0.018 c 0.443442,0.16934 0.831497,0.57715 0.684389,0.97296 -0.135114,0.36301 -2.02565,4.97876 -2.02565,4.97876 h 0.624769 l 0.721784,-1.81363 h 2.563636 l 0.761647,1.81363 h 1.14089 l -2.577754,-5.96971 z m 0.194028,3.67912 1.05163,-2.6543 1.122539,2.6543 z"
         style="fill:#ffffff;fill-opacity:1;fill-rule:nonzero;stroke:none;stroke-width:0.35277778"
         id="path68885"
         inkscape:connector-curvature="0" />
    </g>
  </g>
</svg>
