<?xml version="1.0" encoding="UTF-8" standalone="no"?>
<!-- Source: https://commons.wikimedia.org/wiki/File:Nippon_Life_Insurance_Company_logo.svg -->
<!-- License/usage note: Public domain textlogo on Wikimedia Commons; trademark restrictions may apply. -->
<!-- Generator: Adobe Illustrator 20.0.0, SVG Export Plug-In . SVG Version: 6.00 Build 0)  -->
<svg id="svg2" xmlns:rdf="http://www.w3.org/1999/02/22-rdf-syntax-ns#" style="enable-background:new 0 0 500 129.2" xmlns="http://www.w3.org/2000/svg" xml:space="preserve" height="129.2px" viewBox="0 0 500 129.2" width="500px" version="1.1" y="0px" x="0px" xmlns:cc="http://creativecommons.org/ns#" xmlns:xlink="http://www.w3.org/1999/xlink" xmlns:dc="http://purl.org/dc/elements/1.1/">
<style type="text/css">
	.st0{fill:#231F20;}
	.st1{fill:#ED1C24;}
	.st2{fill:#4F4C4D;}
</style>
																<g id="g10" transform="matrix(1.25 0 0 -1.25 0 1052.4)">
																	<g id="g468">
																			<g id="g470">
																				<path id="path646" d="m163.1 793.1h-35.7v22.9h35.7v-22.9zm-35.7-6.8h35.7v-24.7h-35.7v24.7zm43.8 36.5h-51.7v-68h51.7v68z" class="st0"/>
																				<g id="g648" transform="translate(-250.66 427.91)">
																					<path id="path650" d="m478.2 379.9h21.7v7h-28.4v12.6h-8v-12.6h-28.4v-7h21.7c-4.3-9.5-16-26.3-23.7-35v-11.1c6.4 5.9 22.7 27.4 30.4 42.4v-30h-17v-7h17v-14.2h8v14.1h17v7h-17v30c7.8-15 23.8-36.4 30.2-42.3v11.2c-7.7 8.6-19.2 25.5-23.5 34.9" class="st0"/>
																				</g>
																				<g id="g652" transform="translate(-224.11 410.81)">
																					<path id="path654" d="m518.9 353.7v19.3h21.7v6.7h-21.7v15.5h23.4v6.7h-23.4v13h-8v-13h-13.3c1.5 4.3 3.1 9.8 3.2 11h-7.7c-1.8-6.4-4.6-15.8-10.3-24.4v-12.1c4.4 5.4 8.9 12.4 12 18.9h16.1v-15.5h-21.9v-6.8h21.9v-19.3h-27.7v-6.7h61.7v6.7h-26" class="st0"/>
																				</g>
																				<g id="g656" transform="translate(-204.79 427.37)">
																					<path id="path658" d="m548.5 379.1c0.3 0.2 0.5 0.3 0.7 0.5 4.6 2.9 11.5 7.8 17.8 12.7 5.5-4.5 13-10 17.5-12.9l0.5-0.3h-36.5zm23.3 19.2h-9.7c-8.9-7.9-17.7-13.9-28.9-20.1v-7.5c1.2 0.5 7.1 3.5 12.3 6.5v-4.5h43.1v4.3c5.2-3 11.1-6 12.2-6.4v7.4c-9.5 5-20.2 12.3-29 20.3m-2.8-70.7h7.3v33.1h12.1v-19.6c0-2.4-1.5-2.6-4.5-2.6h-4.8v-6.5h7.9c6.9 0 8.5 3 8.5 9.3v25.8h-26.5v-39.5zm-23.5 33.1h10.7v-22.2h-10.7v22.2zm-7.2-28.7h25.2v35.1h-25.2v-35.1z" class="st0"/>
																				</g>
																				<g id="g660" transform="translate(-315.28 417.32)">
																					<path id="path662" d="m379.2 363.7v39.9l-11.7-11.7-28.2 11.7v-39.9l11.7 11.6 28.2-11.6zm19.9 19.9l-39.9-39.9-39.9 39.9 39.9 39.9 39.9-39.9z" class="st1"/>
																				</g>
																				<g id="g664" transform="translate(-334.48 406.65)">
																					<path id="path666" d="m349.8 347.3v-7.8l-8.8 8.4v-14.6h2.9v7.9l8.8-8.4v14.5h-2.9z" class="st2"/>
																				</g>
																				<path id="path668" d="m24.7 740h2.9v14h-2.9v-14z" class="st2"/>
																				<g id="g670" transform="translate(-316.39 401.14)">
																					<path id="path672" d="m377.5 338.9l3.1 8.1 3.1-8.1h3.1l-6.2 14.7-6.2-14.7h3.1z" class="st2"/>
																				</g>
																				<g id="g674" transform="translate(-309.02 406.65)">
																					<path id="path676" d="m388.8 347.3l-2.6-4.7-2.6 4.7h-3.4l4.5-7.4v-6.6h2.9v6.6l4.5 7.4h-3.3z" class="st2"/>
																				</g>
																				<g id="g678" transform="translate(-324.4 405.4)">
																					<path id="path680" d="m365.2 345.4c-0.7 0.7-1.7 1.2-2.7 1.2h-0.4c-0.8-0.1-1.4-0.7-1.4-1.5 0-0.5 0.2-0.9 0.6-1.2 0.3-0.2 0.7-0.4 1.1-0.6 0.3-0.1 0.7-0.3 1-0.4 1.6-0.8 2.2-1.6 2.7-2.6 0.2-0.5 0.3-0.9 0.3-1.4 0-2.5-2.1-4.5-4.7-4.5-1.3 0-2.4 0.4-3.4 1v2.9c0.7-0.7 1.8-1.4 3-1.4 1.4 0 2.2 1 2.2 1.9 0 0.6-0.4 1.2-1.2 1.6-0.9 0.5-2 0.9-2.6 1.4-1.1 0.7-1.7 1.9-1.7 3.3 0 2.2 2 4.1 4.4 4.1 1.1 0 2.2-0.4 3-0.8v-3" class="st2"/>
																				</g>
																				<g id="g682" transform="translate(-319.25 405.4)">
																					<path id="path684" d="m373.1 345.4c-0.7 0.7-1.7 1.2-2.7 1.2h-0.4c-0.8-0.1-1.5-0.7-1.5-1.5 0-0.5 0.3-0.9 0.7-1.2 0.3-0.2 0.7-0.4 1.1-0.6 0.3-0.1 0.6-0.3 0.9-0.4 1.6-0.8 2.2-1.6 2.7-2.6 0.2-0.5 0.3-0.9 0.3-1.4 0-2.5-2.1-4.5-4.7-4.5-1.3 0-2.5 0.4-3.4 1v2.9c0.7-0.7 1.8-1.4 3-1.4 1.4 0 2.2 1 2.2 1.9 0 0.6-0.5 1.2-1.1 1.6-0.9 0.5-2 0.9-2.6 1.4-1.1 0.7-1.8 1.9-1.8 3.3 0 2.2 2 4.1 4.5 4.1 1.1 0 2.2-0.4 2.9-0.8v-3" class="st2"/>
																				</g>
																			</g>
																	</g>
																</g>
</svg>
