<!-- Source: https://commons.wikimedia.org/wiki/File:Tokio_Marine_%26_Nichido_Fire_Insurance.svg -->
<!-- License/usage note: CC BY 4.0 on Wikimedia Commons; trademark restrictions may apply. -->
<svg width="136" height="25" viewBox="0 0 136 25" fill="none" xmlns="http://www.w3.org/2000/svg">
<g clip-path="url(#clip0_6081_171555)">
<path d="M104.334 19.7301H117.81V5.21484H104.334V19.7301ZM106.355 6.94527H115.786V11.4332H106.355V6.94527ZM106.355 13.1618H115.786V18.0014H106.355V13.1618Z" fill="black"/>
<path d="M94.7953 10.5602H101.444V8.80183H94.7953V4.57812H92.7167V17.9963H86.822V19.725H102.552V17.9963H94.7953V10.5602Z" fill="black"/>
<path d="M85.0479 9.01367H75.0503C74.9558 10.1387 74.8054 11.6959 74.6269 13.3441H73.6943V14.9276H74.4502C74.2455 16.6597 74.0163 18.3796 73.7888 19.7024H84.761C84.8467 18.3587 84.9062 16.6562 84.9447 14.9276H85.8143V13.3441H84.9762C85.0059 11.7467 85.0269 10.2122 85.0462 9.01367H85.0479ZM78.4132 18.1172H75.8954C76.0301 17.1426 76.1719 16.0421 76.3013 14.9276H78.7701C78.6564 16.0386 78.5339 17.1321 78.4132 18.1172ZM78.9276 13.3441H76.4833C76.5883 12.3573 76.6828 11.4107 76.7475 10.6006H79.1708C79.1008 11.4562 79.0168 12.3888 78.9276 13.3441ZM82.9448 18.1172H80.2591C80.3833 17.1479 80.5058 16.0456 80.616 14.9276H83.0883C83.0498 16.0333 83.0026 17.1269 82.9448 18.1172ZM83.1355 13.3441H80.763C80.8505 12.366 80.9205 11.423 80.973 10.6006H83.209C83.1915 11.4527 83.1653 12.3853 83.1355 13.3441Z" fill="black"/>
<path d="M71.369 13.6348C71.39 14.7703 70.8494 17.2006 69.6788 18.0684V20.3098C72.2596 19.4384 73.1624 15.8376 73.2167 13.6365C73.2167 13.633 71.369 13.6365 71.369 13.6365V13.6348Z" fill="black"/>
<path d="M73.1782 7.99909V6.00972C72.2631 5.63704 70.5677 4.96342 69.6736 4.69922C69.6736 4.69922 69.6841 6.60811 69.6841 6.61161C70.6324 6.91255 72.2648 7.60542 73.1782 7.99909Z" fill="black"/>
<path d="M73.1782 12.3524V10.3648C72.2928 9.98685 70.5677 9.31673 69.6736 9.05078C69.6736 9.05078 69.6841 10.9614 69.6841 10.9649C70.5484 11.2326 72.2946 11.9535 73.1782 12.3524Z" fill="black"/>
<path d="M76.1018 7.43603H85.557V5.84208H77.1359C77.3528 5.42741 77.5383 5.01098 77.6958 4.60156H75.7309C75.2952 5.52889 74.6181 6.66267 73.7118 7.40628V9.60037C74.6829 8.98798 75.4685 8.24437 76.1001 7.43778L76.1018 7.43603Z" fill="black"/>
<path d="M43.0733 4.58008H41.1084V5.78385H34.1727V7.3813H41.1084V8.31737H35.1018V14.7736H39.7052C38.2827 16.2224 36.2583 17.6274 34.2305 18.2572C34.2305 18.2572 34.2305 20.2414 34.2305 20.2396C36.624 19.5222 39.273 17.7288 41.1084 15.6782V20.2956H43.0733V15.6607C44.9087 17.7166 47.5682 19.517 49.967 20.2344V18.2537C47.9391 17.6256 45.9183 16.2224 44.494 14.7754H49.0869V8.31912H43.0733V7.38305H50.03V5.7856H43.0733V4.58183V4.58008ZM41.1084 13.2217H36.9827V12.1894H41.1084V13.2217ZM41.1084 10.8544H36.9827V9.87108H41.1084V10.8544ZM47.206 13.2217H43.0715V12.1894H47.206V13.2217ZM47.206 9.87283V10.8561H43.0715V9.87283H47.206Z" fill="black"/>
<path d="M125.619 6.09004C126.895 5.97631 128.086 5.84334 128.9 5.72436V4.32812C126.277 4.67456 122.498 4.972 120.407 4.9895V6.36299C121.338 6.37524 122.575 6.3175 123.847 6.23176V6.95438H120.255V8.25963H123.847V9.00324H120.587V15.0238H123.847V15.8147H120.482V17.1182H123.847V18.3097C122.519 18.427 121.245 18.5127 120.258 18.5494V19.9859C122.484 19.9054 126.597 19.5327 128.9 19.1898V17.7306C127.932 17.8758 126.79 18.0158 125.619 18.1383V17.1165H128.972V15.813H125.619V15.0221H128.903V9.00149H125.619V8.25788H128.972V6.95263H125.619V6.08654V6.09004ZM123.847 13.8096H122.248V12.6058H123.847V13.8096ZM123.847 11.423H122.248V10.221H123.847V11.423ZM127.239 13.8096H125.621V12.6058H127.239V13.8096ZM127.239 10.221V11.423H125.621V10.221H127.239Z" fill="black"/>
<path d="M135.995 7.48568H132.817C132.847 6.45687 132.863 5.46656 132.868 4.57773C132.868 4.57423 131.033 4.57773 131.033 4.57773C131.043 5.48755 131.047 6.47262 131.033 7.48568H129.32V9.16886H130.994C130.924 11.2527 130.746 13.3226 130.343 14.9498C130.116 15.8666 129.789 16.6977 129.299 17.3818V19.8418C130.651 18.8078 131.304 17.6023 131.773 16.1728C132.345 14.4371 132.616 11.7864 132.747 9.16711H134.128C134.133 11.9403 134.119 15.123 133.904 17.8717C133.82 18.3319 133.542 18.4631 133.155 18.4631H131.796V20.1148H133.551C134.725 20.1148 135.724 19.4394 135.829 17.8542C136.065 14.2831 135.977 10.4619 135.99 7.48568H135.995Z" fill="black"/>
<path d="M60.7468 4.5918H58.7644V5.79207H51.8445V7.38952H67.6877V5.79207H60.7468V4.5918Z" fill="black"/>
<path d="M66.162 8.53516H53.3579V14.1376H58.8361V17.9869C58.8361 18.3211 58.8011 18.5783 58.1573 18.5783H56.6648V20.2859C56.6648 20.2859 58.7924 20.2859 58.8064 20.2859C59.9804 20.2859 60.8535 19.7838 60.8535 18.6062V14.1376H66.162V8.53516ZM64.2461 12.5839H55.272V10.0889H64.2461V12.5839Z" fill="black"/>
<path d="M55.1181 15.0801C54.6999 16.2489 53.05 17.7361 51.9092 18.191V20.1436C54.6457 19.3405 56.5546 16.7895 57.2894 15.0801H55.1181Z" fill="black"/>
<path d="M64.4053 15.0801H62.2374C62.9705 16.7895 64.8829 19.3405 67.6159 20.1436V18.191C66.4786 17.7343 64.8252 16.2489 64.407 15.0801H64.4053Z" fill="black"/>
<path d="M1.95442 17.5762H1.93517C1.88968 17.5989 1.83019 17.6024 1.7742 17.6024H0.307982L0.26949 17.5972C0.236246 17.5937 0.204752 17.5902 0.175008 17.5779H0.171508H0.140014L-0.00170898 18.0591H0.0455321L0.0507811 18.0521C0.148763 17.9611 0.299234 17.9104 0.475951 17.9104H0.778643V19.5813C0.778643 19.6005 0.778643 19.6198 0.778643 19.639C0.778643 19.7895 0.764646 19.9662 0.629921 20.0187L0.615924 20.024V20.0712H1.38753V20.0275L1.37703 20.0222C1.19856 19.919 1.19506 19.7895 1.19506 19.5953V17.9139H1.50651C1.62198 17.9139 1.76021 17.9296 1.80395 18.0468L1.8092 18.0608H1.84944L1.97892 17.5797H1.95092L1.95442 17.5762Z" fill="black"/>
<path d="M2.49682 18.7957C2.49682 18.2358 2.873 17.8474 3.4119 17.8474C3.99804 17.8474 4.31648 18.381 4.31648 18.8832C4.31648 19.4343 3.9473 19.821 3.42065 19.821C2.85026 19.821 2.49857 19.2891 2.49857 18.7957H2.49682ZM2.41984 17.9296C2.17139 18.1728 2.03491 18.4913 2.03491 18.8272C2.03491 19.5673 2.6228 20.1272 3.39965 20.1272C4.17651 20.1272 4.77664 19.5481 4.77664 18.8097C4.77664 18.4773 4.64542 18.1623 4.40571 17.9244C4.15376 17.6742 3.81083 17.5377 3.4364 17.5395C3.04797 17.5307 2.68579 17.6689 2.41809 17.9296H2.41984Z" fill="black"/>
<path d="M5.87361 17.6014H5.14575V17.6468L5.15975 17.6538C5.31722 17.7116 5.31372 17.9303 5.31197 18.0913V18.1385V19.5277V19.5767C5.31372 19.7377 5.31722 19.9582 5.15975 20.0159L5.14575 20.0212V20.0684H5.89461V20.0212L5.88061 20.0159C5.72489 19.9582 5.72664 19.736 5.72839 19.5767V19.526V18.1368V18.0895C5.72839 17.9285 5.72489 17.7081 5.88061 17.6521L5.89461 17.6468V17.5996H5.87361V17.6014ZM6.33553 17.6014H6.31453V17.6468L6.32678 17.6538C6.38102 17.6783 6.41251 17.7081 6.42301 17.7466C6.44576 17.8341 6.35477 17.9565 6.27429 18.0615L6.2218 18.135L5.73014 18.7876L6.55773 19.9022C6.62947 20.0002 6.80794 20.0684 6.98815 20.0684H7.35558V20.0229L7.34334 20.0177C7.14912 19.9232 7.0144 19.8164 6.90942 19.6782C6.90942 19.6782 6.26204 18.8261 6.17631 18.7141C6.19555 18.6897 7.03889 17.6066 7.03889 17.6066L6.99515 17.6031H6.33378L6.33553 17.6014Z" fill="black"/>
<path d="M8.21293 17.6016H7.49207V17.6471L7.50606 17.6541C7.66178 17.7118 7.65828 17.92 7.65478 18.088V18.1422V19.5314V19.5804C7.65653 19.7414 7.66003 19.9619 7.50606 20.0161L7.49207 20.0214V20.0686H8.23393V20.0214L8.21993 20.0161C8.06771 19.9584 8.06946 19.7397 8.07121 19.5804V18.095C8.06771 17.934 8.06596 17.7118 8.21993 17.6541L8.23393 17.6471V17.6016H8.21293Z" fill="black"/>
<path d="M9.06677 18.7957C9.06677 18.2358 9.44295 17.8474 9.98185 17.8474C10.568 17.8474 10.8847 18.381 10.8847 18.8832C10.8847 19.4343 10.5155 19.821 9.98885 19.821C9.4202 19.821 9.06677 19.2891 9.06677 18.7957ZM8.98979 17.9296C8.74133 18.1728 8.60486 18.4913 8.60486 18.8272C8.60486 19.5673 9.191 20.1272 9.9696 20.1272C10.7482 20.1272 11.3466 19.5481 11.3466 18.8097C11.3466 18.4773 11.2136 18.1623 10.9757 17.9244C10.7237 17.6742 10.3808 17.5377 10.0063 17.5395C9.61792 17.5307 9.25573 17.6689 8.98804 17.9296H8.98979Z" fill="black"/>
<path d="M15.0524 17.6016H14.3946V17.6261C14.3946 17.6995 14.3701 17.7695 14.3421 17.8448C14.3421 17.8448 13.7839 19.2707 13.7489 19.36C13.7104 19.2725 13.0771 17.7818 13.0771 17.7818L13.0666 17.759C13.0473 17.7153 13.0281 17.6698 13.0281 17.6261V17.6051L13.0071 17.6016H12.3422V17.6453L12.3527 17.6523C12.4944 17.7293 12.4769 17.843 12.4612 17.9462L12.4577 17.9725L12.2477 19.5174L12.2442 19.5367C12.2162 19.7257 12.1917 19.8936 12.0483 20.0196L12.0413 20.0266V20.0686H12.6851V20.0231L12.6711 20.0179C12.5732 19.9741 12.5452 19.8989 12.5452 19.7956C12.5452 19.7379 12.5539 19.6697 12.5644 19.5909C12.5644 19.5909 12.7481 18.2052 12.7674 18.067C12.8216 18.1982 13.4375 19.6574 13.4375 19.6574C13.5302 19.8709 13.5845 19.9724 13.7682 20.1141L13.7909 20.1298C13.7909 20.1298 14.5398 18.2174 14.5958 18.0722C14.6133 18.2244 14.7952 19.7642 14.7952 19.7642C14.7952 19.8901 14.7725 19.9829 14.6588 20.0179L14.6448 20.0231V20.0703H15.3971V20.0284L15.3884 20.0214C15.2484 19.9251 15.2309 19.8306 15.2082 19.6609L14.965 17.8518C14.965 17.815 14.972 17.6838 15.0647 17.6576L15.0787 17.6523V17.6051H15.0577L15.0524 17.6016Z" fill="black"/>
<path d="M16.7794 17.9935C16.8126 18.0792 17.0908 18.7931 17.1101 18.8421H16.4469C16.4662 18.7913 16.7461 18.0792 16.7794 17.9935ZM17.0226 17.6016H16.4189V17.6488L16.4329 17.6541C16.4784 17.668 16.5064 17.689 16.5204 17.7188C16.5484 17.7783 16.5134 17.871 16.4819 17.9515L16.4749 17.9707L15.859 19.5052L15.8381 19.5577C15.7681 19.7467 15.6998 19.9234 15.5109 20.0179L15.5004 20.0231V20.0686H16.2212V20.0214L16.2072 20.0161C16.1495 19.9951 16.1145 19.9671 16.0988 19.9339C16.0918 19.9181 16.0883 19.9006 16.0883 19.8814C16.0883 19.8254 16.1145 19.7519 16.146 19.6644C16.146 19.6644 16.3035 19.2375 16.3315 19.1588H17.2308C17.2413 19.185 17.425 19.6644 17.425 19.6644L17.4425 19.7099C17.4792 19.8061 17.502 19.8639 17.502 19.9059C17.502 19.9566 17.467 19.9794 17.383 20.0179L17.3708 20.0231V20.0686H18.1669V20.0231L18.1546 20.0179C17.9691 19.9234 17.8992 19.7467 17.8239 19.5594L17.8029 19.507L17.0313 17.6051H17.0173L17.0226 17.6016Z" fill="black"/>
<path d="M18.3802 17.6016H18.3593V17.6471L18.3733 17.6541C18.5272 17.7118 18.5237 17.92 18.522 18.088V19.5857C18.5237 19.7449 18.5272 19.9619 18.3733 20.0161L18.3593 20.0214V20.0686H19.1046V20.0214L19.0906 20.0161C18.9524 19.9671 18.9384 19.7886 18.9384 19.6347C18.9384 19.6154 18.9384 19.5979 18.9384 19.5787V17.8973C19.0276 17.8815 19.0994 17.8728 19.1693 17.8693C19.3006 17.864 19.4266 17.906 19.5105 17.9882C19.584 18.0582 19.6225 18.1527 19.6225 18.2577C19.6225 18.6181 19.2341 18.7301 19.0031 18.7651L18.9716 18.7703L19.3286 19.318L19.78 19.8761C19.892 20.0144 20.0162 20.0668 20.2244 20.0668H20.6356L20.5743 20.0284C20.3451 19.8831 20.1247 19.6942 19.9829 19.5192C19.9829 19.5192 19.5665 18.9925 19.472 18.8753C19.7607 18.7966 20.0424 18.5516 20.0424 18.2157C20.0424 17.843 19.7345 17.6016 19.2603 17.6016H18.3837H18.3802Z" fill="black"/>
<path d="M21.4982 17.6016H20.7773V17.6471L20.7913 17.6541C20.9453 17.7118 20.9436 17.92 20.9401 18.088V18.1422V19.5314V19.5804C20.9418 19.7414 20.9453 19.9619 20.7913 20.0161L20.7773 20.0214V20.0686H21.5192V20.0214L21.507 20.0161C21.353 19.9584 21.3547 19.7397 21.3582 19.5804V18.095C21.3565 17.934 21.353 17.7118 21.507 17.6541L21.5192 17.6471V17.6016H21.4982Z" fill="black"/>
<path d="M24.5426 17.6016H23.8725V17.6453L23.883 17.6523C24.0597 17.752 24.0632 17.8815 24.0632 18.0757V19.4335C23.9932 19.3442 22.7527 17.78 22.7527 17.78L22.7019 17.7065C22.6774 17.6768 22.6634 17.6611 22.6495 17.6191L22.6442 17.6051L22.6285 17.6016H22.0686V17.6453L22.0791 17.6523C22.261 17.7573 22.261 17.892 22.261 18.0985V19.5682C22.261 19.7747 22.261 19.9094 22.0756 20.0179L22.0651 20.0231V20.0668H22.7579V20.0231L22.7474 20.0179C22.5707 19.9146 22.5672 19.7851 22.5672 19.5909V18.2034C22.6372 18.2944 23.7937 19.7589 23.7937 19.7589C23.9512 19.9619 24.0649 20.0931 24.3414 20.1876L24.3694 20.1963V18.1002C24.3694 17.8955 24.3694 17.759 24.5513 17.6541L24.5618 17.6471V17.6033H24.5408L24.5426 17.6016Z" fill="black"/>
<path d="M26.413 17.5838H26.392C26.3571 17.6048 26.3116 17.603 26.2643 17.603H26.2293H25.0291V17.6503L25.0431 17.6555C25.2005 17.7133 25.197 17.9355 25.1953 18.0964V19.5819C25.197 19.7429 25.2005 19.9633 25.0431 20.0176L25.0291 20.0228V20.0701H26.602L26.7822 19.5452H26.7332L26.728 19.5522C26.5513 19.7061 26.3028 19.7866 26.0614 19.7639C26.0614 19.7639 25.6467 19.7236 25.6134 19.7201V18.8873H25.8759C25.9861 18.8873 26.1226 18.8873 26.1751 18.98L26.1821 18.9905H26.2258V18.5583H26.1856C26.1453 18.5793 26.0876 18.5793 26.0316 18.5793H25.6152V17.9337C25.7307 17.9127 25.8531 17.9092 25.9704 17.9092C26.1278 17.9092 26.2783 17.9197 26.3885 18.0492L26.3955 18.0562H26.4375V17.582H26.4165L26.413 17.5838Z" fill="black"/>
<path d="M7.67231 21.4238H7.00394V21.4676L7.01444 21.4746C7.19116 21.576 7.19465 21.7038 7.19465 21.898V23.2557C7.12467 23.1665 5.88415 21.6023 5.88415 21.6023L5.83166 21.5288C5.80892 21.4991 5.79492 21.4816 5.78092 21.4413L5.77567 21.4273L5.75993 21.4238H5.20003V21.4676L5.21053 21.4746C5.39075 21.5795 5.39075 21.7143 5.39075 21.9207V23.3905C5.39075 23.5969 5.39075 23.7316 5.20703 23.8401L5.19653 23.8454V23.8891H5.89115V23.8454L5.88065 23.8401C5.70219 23.7351 5.69869 23.6057 5.69869 23.4132V22.0257C5.77042 22.1149 6.92521 23.5794 6.92521 23.5794C7.08268 23.7824 7.19815 23.9136 7.47285 24.0063L7.4991 24.0168V21.9207C7.4991 21.7143 7.4991 21.5795 7.68106 21.4746L7.69156 21.4676V21.4238H7.67056H7.67231Z" fill="black"/>
<path d="M8.82536 21.4238H8.10449V21.4711L8.11849 21.4763C8.27246 21.5341 8.27071 21.7423 8.26721 21.9102V21.9662V23.3537V23.4027C8.26896 23.5637 8.27246 23.7824 8.11849 23.8384L8.10449 23.8419V23.8891H8.84635V23.8419L8.83235 23.8384C8.68013 23.7806 8.68188 23.5619 8.68363 23.4027V21.9172C8.68363 21.7563 8.68013 21.5358 8.83235 21.4763L8.84635 21.4711V21.4238H8.82536Z" fill="black"/>
<path d="M9.26099 22.6551C9.26099 23.4547 9.80863 23.9517 10.6887 23.9517C10.9039 23.9517 11.0946 23.9132 11.2539 23.8379H11.2609L11.4656 23.3708H11.4166L11.4113 23.3743C11.2276 23.481 10.9459 23.6052 10.638 23.6052C10.1166 23.6052 9.7229 23.173 9.7229 22.6027C9.7229 22.0813 10.0693 21.7173 10.5645 21.7173C10.7902 21.7173 11.0229 21.7891 11.2346 21.9255L11.2679 21.9448V21.4654L11.2521 21.4619C10.9862 21.4006 10.771 21.3691 10.5767 21.3691C9.80338 21.3691 9.26274 21.8993 9.26274 22.6569L9.26099 22.6551Z" fill="black"/>
<path d="M14.2353 21.4256H13.511V21.4728L13.525 21.4781C13.6597 21.5288 13.6755 21.6915 13.6755 21.8437C13.6755 21.8665 13.6755 21.8892 13.6755 21.912V21.968C13.6755 21.968 13.6755 22.3651 13.6755 22.4036H12.3877V21.9172C12.3877 21.8997 12.3877 21.8805 12.3877 21.8612C12.3877 21.709 12.4017 21.5306 12.5382 21.4781L12.5522 21.4728V21.4256H11.8103V21.4728L11.8243 21.4781C11.9783 21.5358 11.9748 21.751 11.973 21.9085V21.9627V23.3555V23.4045C11.9765 23.5637 11.9783 23.7824 11.8243 23.8401L11.8103 23.8436V23.8909H12.5522V23.8436L12.5382 23.8401C12.4017 23.7876 12.3877 23.6109 12.3877 23.4604C12.3877 23.4412 12.3877 23.4237 12.3877 23.4045V23.3555C12.3877 23.3555 12.3877 22.7501 12.3877 22.7098H13.6755V23.4097C13.6755 23.4289 13.6755 23.4517 13.6755 23.4727C13.6755 23.6197 13.6615 23.7894 13.525 23.8401L13.511 23.8436V23.8909H14.2563V23.8436L14.2423 23.8401C14.0866 23.7824 14.0884 23.5619 14.0901 23.4027V23.3537V21.961V21.9137C14.0884 21.7528 14.0849 21.5341 14.2423 21.4763L14.2563 21.4711V21.4238H14.2353V21.4256Z" fill="black"/>
<path d="M15.5668 21.4238H14.8459V21.4711L14.8599 21.4763C15.0139 21.5341 15.0122 21.7423 15.0087 21.9102V21.9662V23.3537V23.4027C15.0104 23.5637 15.0139 23.7824 14.8599 23.8384L14.8459 23.8419V23.8891H15.5878V23.8419L15.5738 23.8384C15.4198 23.7806 15.4233 23.5619 15.4251 23.4027V21.9172C15.4233 21.7563 15.4198 21.5358 15.5738 21.4763L15.5878 21.4711V21.4238H15.5668Z" fill="black"/>
<path d="M17.0645 21.73C17.6892 21.73 18.0198 22.059 18.0198 22.6801C18.0198 23.345 17.4949 23.5847 17.0015 23.5847C16.9123 23.5847 16.8318 23.5759 16.7531 23.5602V21.7685C16.8616 21.744 16.9648 21.73 17.0645 21.73ZM16.1949 21.4238H16.174V21.4728L16.1897 21.4763C16.3419 21.5218 16.3402 21.7283 16.3367 21.8945V21.9505V23.3397V23.4027C16.3384 23.5882 16.3402 23.7351 16.1844 23.8419L16.1757 23.8471V23.8909H17.0803C17.9061 23.8909 18.4835 23.3747 18.4835 22.6346C18.4835 21.8945 17.9534 21.4238 17.0978 21.4238H16.1949Z" fill="black"/>
<path d="M19.3075 22.618C19.3075 22.0581 19.6837 21.6714 20.2226 21.6714C20.8088 21.6714 21.1254 22.2051 21.1254 22.7072C21.1254 23.2584 20.7563 23.645 20.2296 23.645C19.6592 23.645 19.3075 23.1131 19.3075 22.6197V22.618ZM19.2288 21.7536C18.9803 21.9968 18.8439 22.3153 18.8439 22.6495C18.8439 23.3913 19.4318 23.9495 20.2104 23.9495C20.989 23.9495 21.5874 23.3703 21.5874 22.6302C21.5874 22.2995 21.4561 21.9846 21.2164 21.7466C20.9662 21.4964 20.6215 21.36 20.2471 21.3617C19.8587 21.353 19.4965 21.4912 19.2288 21.7536Z" fill="black"/>
<path d="M17.3497 8.73923C19.4949 8.73923 21.234 7.00019 21.234 4.85497C21.234 2.70975 19.4949 0.970703 17.3497 0.970703C15.2045 0.970703 13.4655 2.70975 13.4655 4.85497C13.4655 7.00019 15.2045 8.73923 17.3497 8.73923Z" fill="url(#paint0_radial_6081_171555)"/>
<path d="M8.90228 3.86622C9.53741 6.55896 10.8602 8.87902 11.1821 9.52465C9.54266 7.36906 8.23216 6.12504 7.30484 5.92908C6.9619 4.75155 6.92516 4.06568 7.10012 3.60202C7.44656 3.05963 8.0397 3.1786 8.90228 3.86622Z" fill="#005781"/>
<path d="M14.1128 2.70789C14.0708 2.54168 14.0358 2.3912 14.0078 2.25648V2.25298C13.9886 2.162 13.9728 2.07801 13.9588 2.00103C13.9518 1.96428 13.9466 1.92929 13.9413 1.89605C13.9413 1.89255 13.9413 1.8873 13.9396 1.8838C13.9343 1.85231 13.9291 1.82081 13.9256 1.79282C13.9256 1.78932 13.9256 1.78407 13.9256 1.78057C13.9221 1.75082 13.9168 1.72283 13.9151 1.69659C12.6256 0.51031 11.9012 0.19362 11.2923 0.45432C11.2923 0.45432 11.1593 0.566299 11.1156 0.809503C11.0281 1.30816 11.1104 2.26873 11.3623 3.11732C11.9292 3.29228 12.6273 3.80319 13.4724 4.63253C13.5127 3.92041 13.7436 3.26429 14.1128 2.70964V2.70789Z" fill="#005781"/>
<path d="M7.10019 3.60156C7.04595 3.69779 6.94972 3.84827 6.88323 3.97599C6.39507 4.84383 6.07838 5.81839 5.9629 6.85595C5.88242 7.59256 6.29359 9.24949 7.16143 10.9432C7.67583 11.9457 8.29871 12.7436 8.79912 13.3332C9.1508 13.7479 9.56372 14.1136 10.0554 14.3568C10.9477 14.8012 11.938 15.0829 12.9896 15.1424L12.9808 15.1144C12.2372 14.8677 11.0579 13.5327 9.89791 11.6325C9.57772 11.1041 9.25403 10.5373 8.94434 9.93536C8.6434 9.34923 8.14124 8.21369 8.14124 8.21369C8.14124 8.21369 7.49911 6.54626 7.3084 5.92862C6.96546 4.75109 6.92872 4.06522 7.10369 3.60156H7.10019Z" fill="url(#paint1_radial_6081_171555)"/>
<path d="M11.1822 9.52536C11.9888 11.0161 12.8391 12.3003 13.6125 13.2347C14.3438 14.1147 15.0052 14.6764 15.4864 14.7971C15.5529 14.8111 15.6351 14.8251 15.7436 14.7901C16.5677 14.5259 17.3288 14.1165 18.0007 13.5986L17.9832 13.5671C17.5125 13.5881 16.8004 13.0387 15.9938 12.0799C15.1102 11.0388 14.1181 9.51836 13.2101 7.7477C12.337 6.04702 11.7053 4.41808 11.3607 3.11807C11.1087 2.26948 11.0265 1.30892 11.114 0.810261C11.1559 0.567057 11.2907 0.455078 11.2907 0.455078C10.4508 0.703531 9.63548 1.12345 8.95661 1.62561C8.84463 1.70784 8.81139 1.77258 8.79564 1.82157C8.64692 2.23799 8.69241 2.95361 8.90062 3.86693C9.53575 6.55967 10.8585 8.87973 11.1804 9.52536H11.1822Z" fill="url(#paint2_radial_6081_171555)"/>
<path d="M19.4808 8.10624C19.57 8.20597 19.6557 8.29695 19.738 8.38093C20.1526 8.79736 20.5131 8.99682 20.7283 8.88659C20.7633 8.86909 20.7913 8.8446 20.8175 8.81135L20.835 8.81835C20.7038 9.65819 20.4273 10.4473 20.0494 11.1734C19.9182 11.4254 19.7415 11.4761 19.5298 11.4219C19.1606 11.3274 18.6672 10.918 18.1178 10.2863C17.7416 9.85416 17.3112 9.32226 16.8773 8.70812C16.8773 8.70812 15.6507 7.04944 14.9526 5.25253C14.2038 3.32614 13.9798 2.2431 13.9116 1.6972C13.7978 0.932595 13.8696 0.409444 14.1618 0.258973C14.2265 0.225729 14.2737 0.215231 14.3945 0.216981C14.447 0.216981 14.5082 0.227479 14.5607 0.236227C15.3918 0.362203 16.1774 0.626403 16.8948 1.00083C16.8948 1.00083 16.7023 1.02358 16.5728 1.1723C16.3943 1.38576 16.3996 1.91066 16.5991 2.67527C16.9787 4.13974 17.8763 6.23584 19.479 8.10799L19.4808 8.10624Z" fill="url(#paint3_radial_6081_171555)"/>
</g>
<defs>
<radialGradient id="paint0_radial_6081_171555" cx="0" cy="0" r="1" gradientUnits="userSpaceOnUse" gradientTransform="translate(16.5407 3.10468) rotate(54.86) scale(5.8194 6.22676)">
<stop offset="0.12" stop-color="#FFFEF7"/>
<stop offset="0.14" stop-color="#FDFAEE"/>
<stop offset="0.24" stop-color="#EEDEA5"/>
<stop offset="0.32" stop-color="#E5CC77"/>
<stop offset="0.36" stop-color="#E2C666"/>
<stop offset="0.49" stop-color="#C9A72D"/>
<stop offset="0.7" stop-color="#9D7C11"/>
<stop offset="0.88" stop-color="#7E6410"/>
<stop offset="0.99" stop-color="#735C10"/>
</radialGradient>
<radialGradient id="paint1_radial_6081_171555" cx="0" cy="0" r="1" gradientUnits="userSpaceOnUse" gradientTransform="translate(11.3241 4.96319) rotate(82.79) scale(11.2014 19.0423)">
<stop offset="0.04" stop-color="#E8F5FC"/>
<stop offset="0.19" stop-color="#E5F2FB"/>
<stop offset="0.23" stop-color="#A6D1EB"/>
<stop offset="0.27" stop-color="#18AEE7"/>
<stop offset="0.28" stop-color="#00A8E6"/>
<stop offset="0.3" stop-color="#00A5E0"/>
<stop offset="0.34" stop-color="#00A4DF"/>
<stop offset="0.5" stop-color="#0095CB"/>
<stop offset="0.61" stop-color="#007EAD"/>
<stop offset="0.83" stop-color="#00688F"/>
</radialGradient>
<radialGradient id="paint2_radial_6081_171555" cx="0" cy="0" r="1" gradientUnits="userSpaceOnUse" gradientTransform="translate(10.1855 4.111) rotate(59.81) scale(13.028 22.1477)">
<stop offset="0.01" stop-color="#E9F5FC"/>
<stop offset="0.08" stop-color="#DDEEFA"/>
<stop offset="0.16" stop-color="#A8D2F1"/>
<stop offset="0.18" stop-color="#88CAEE"/>
<stop offset="0.23" stop-color="#4EBCEA"/>
<stop offset="0.27" stop-color="#23B1E6"/>
<stop offset="0.3" stop-color="#09ABE4"/>
<stop offset="0.32" stop-color="#00A9E4"/>
<stop offset="0.45" stop-color="#00A0DA"/>
<stop offset="0.6" stop-color="#008ABE"/>
<stop offset="0.73" stop-color="#0077A5"/>
<stop offset="0.87" stop-color="#005F84"/>
</radialGradient>
<radialGradient id="paint3_radial_6081_171555" cx="0" cy="0" r="1" gradientUnits="userSpaceOnUse" gradientTransform="translate(9.82717 4.45007) rotate(65.76) scale(12.0045 20.4076)">
<stop offset="0.04" stop-color="#E8F5FC"/>
<stop offset="0.16" stop-color="#E5F2FB"/>
<stop offset="0.22" stop-color="#B0D6ED"/>
<stop offset="0.23" stop-color="#A6D1EB"/>
<stop offset="0.24" stop-color="#88CAEA"/>
<stop offset="0.26" stop-color="#4EBCE8"/>
<stop offset="0.28" stop-color="#23B3E7"/>
<stop offset="0.29" stop-color="#09ADE6"/>
<stop offset="0.3" stop-color="#00ABE6"/>
<stop offset="0.41" stop-color="#00A4E3"/>
<stop offset="0.45" stop-color="#009BD7"/>
<stop offset="0.62" stop-color="#0081B2"/>
<stop offset="0.87" stop-color="#006085"/>
</radialGradient>
<clipPath id="clip0_6081_171555">
<rect width="136" height="24.2327" fill="white"/>
</clipPath>
</defs>
</svg>
